<svg width="59" height="57" viewBox="0 0 59 57" fill="none" xmlns="http://www.w3.org/2000/svg">
<circle opacity="0.2" cx="22.5" cy="22.5" r="22.5" fill="#F79800"/>
<path d="M56.8906 19.7344H48.4531V16.2188C48.4531 16.0323 48.379 15.8534 48.2472 15.7216C48.1153 15.5897 47.9365 15.5156 47.75 15.5156H45.6406V14.1094C45.6406 13.9229 45.5665 13.7441 45.4347 13.6122C45.3028 13.4803 45.124 13.4062 44.9375 13.4062H39.3125C38.7649 13.4084 38.2253 13.5385 37.737 13.7864C37.2486 14.0342 36.825 14.3928 36.5 14.8336C36.175 14.3928 35.7514 14.0342 35.263 13.7864C34.7747 13.5385 34.2351 13.4084 33.6875 13.4062H28.0625C27.876 13.4062 27.6972 13.4803 27.5653 13.6122C27.4335 13.7441 27.3594 13.9229 27.3594 14.1094V15.5156H25.25C25.0635 15.5156 24.8847 15.5897 24.7528 15.7216C24.621 15.8534 24.5469 16.0323 24.5469 16.2188V19.7344H16.1094C15.9229 19.7344 15.7441 19.8085 15.6122 19.9403C15.4803 20.0722 15.4062 20.251 15.4062 20.4375V23.9531C15.4062 24.1396 15.4803 24.3184 15.6122 24.4503C15.7441 24.5822 15.9229 24.6562 16.1094 24.6562V54.8906C16.1094 55.0771 16.1835 55.2559 16.3153 55.3878C16.4472 55.5197 16.626 55.5938 16.8125 55.5938H56.1875C56.374 55.5938 56.5528 55.5197 56.6847 55.3878C56.8165 55.2559 56.8906 55.0771 56.8906 54.8906V24.6562C57.0771 24.6562 57.2559 24.5822 57.3878 24.4503C57.5197 24.3184 57.5938 24.1396 57.5938 23.9531V20.4375C57.5938 20.251 57.5197 20.0722 57.3878 19.9403C57.2559 19.8085 57.0771 19.7344 56.8906 19.7344ZM37.2031 16.9219C37.2048 16.3629 37.4276 15.8274 37.8228 15.4322C38.218 15.0369 38.7536 14.8142 39.3125 14.8125H44.2344V26.0625H37.2031V16.9219ZM28.7656 14.8125H33.6875C34.2464 14.8142 34.782 15.0369 35.1772 15.4322C35.5724 15.8274 35.7952 16.3629 35.7969 16.9219V26.0625H28.7656V14.8125ZM25.9531 16.9219H27.3594V26.7656C27.3594 26.9521 27.4335 27.1309 27.5653 27.2628C27.6972 27.3947 27.876 27.4688 28.0625 27.4688H44.9375C45.124 27.4688 45.3028 27.3947 45.4347 27.2628C45.5665 27.1309 45.6406 26.9521 45.6406 26.7656V16.9219H47.0469V28.875H25.9531V16.9219ZM16.8125 21.1406H24.5469V23.25H16.8125V21.1406ZM40.7188 54.1875H32.2812V41.5312H40.7188V54.1875ZM55.4844 54.1875H42.125V40.8281C42.125 40.6416 42.0509 40.4628 41.9191 40.3309C41.7872 40.1991 41.6084 40.125 41.4219 40.125H31.5781C31.3916 40.125 31.2128 40.1991 31.0809 40.3309C30.9491 40.4628 30.875 40.6416 30.875 40.8281V54.1875H17.5156V33.0938H55.4844V54.1875ZM55.4844 31.6875H17.5156V24.6562H24.5469V29.5781C24.5469 29.7646 24.621 29.9434 24.7528 30.0753C24.8847 30.2072 25.0635 30.2812 25.25 30.2812H47.75C47.9365 30.2812 48.1153 30.2072 48.2472 30.0753C48.379 29.9434 48.4531 29.7646 48.4531 29.5781V24.6562H55.4844V31.6875ZM56.1875 23.25H48.4531V21.1406H56.1875V23.25Z" fill="#F79800"/>
<path d="M30.1719 16.9219H34.3906V18.3281H30.1719V16.9219Z" fill="#F79800"/>
<path d="M30.1719 19.7344H34.3906V21.1406H30.1719V19.7344Z" fill="#F79800"/>
<path d="M30.1719 22.5469H34.3906V23.9531H30.1719V22.5469Z" fill="#F79800"/>
<path d="M38.6094 16.9219H42.8281V18.3281H38.6094V16.9219Z" fill="#F79800"/>
<path d="M38.6094 19.7344H42.8281V21.1406H38.6094V19.7344Z" fill="#F79800"/>
<path d="M38.6094 22.5469H42.8281V23.9531H38.6094V22.5469Z" fill="#F79800"/>
<path d="M21.7344 44.3438H27.3594C27.5459 44.3438 27.7247 44.2697 27.8566 44.1378C27.9884 44.0059 28.0625 43.8271 28.0625 43.6406V36.6094C28.0625 36.4229 27.9884 36.2441 27.8566 36.1122C27.7247 35.9803 27.5459 35.9062 27.3594 35.9062H21.7344C21.5479 35.9062 21.3691 35.9803 21.2372 36.1122C21.1053 36.2441 21.0312 36.4229 21.0312 36.6094V43.6406C21.0312 43.8271 21.1053 44.0059 21.2372 44.1378C21.3691 44.2697 21.5479 44.3438 21.7344 44.3438ZM22.4375 37.3125H26.6562V42.9375H22.4375V37.3125Z" fill="#F79800"/>
<path d="M45.6406 44.3438H51.2656C51.4521 44.3438 51.6309 44.2697 51.7628 44.1378C51.8947 44.0059 51.9688 43.8271 51.9688 43.6406V36.6094C51.9688 36.4229 51.8947 36.2441 51.7628 36.1122C51.6309 35.9803 51.4521 35.9062 51.2656 35.9062H45.6406C45.4541 35.9062 45.2753 35.9803 45.1434 36.1122C45.0116 36.2441 44.9375 36.4229 44.9375 36.6094V43.6406C44.9375 43.8271 45.0116 44.0059 45.1434 44.1378C45.2753 44.2697 45.4541 44.3438 45.6406 44.3438ZM46.3438 37.3125H50.5625V42.9375H46.3438V37.3125Z" fill="#F79800"/>
<path d="M33.6875 46.4531H35.0938V48.5625H33.6875V46.4531Z" fill="#F79800"/>
</svg>
